<?xml version="1.0" encoding="UTF-8"?><svg id="Layer_2" xmlns="http://www.w3.org/2000/svg" viewBox="0 0 1500 309.04"><defs><style>.cls-1{fill:#8f00ff;}</style></defs><g id="Layer_1-2"><path d="m384.58,205.57c-6.2-2.71-11.08-6.44-14.67-11.17-3.59-4.73-5.6-10.02-6.03-15.89h27.55c.32,3.15,1.79,5.71,4.4,7.66,2.61,1.96,5.81,2.93,9.62,2.93,3.48,0,6.17-.68,8.07-2.04,1.9-1.36,2.85-3.12,2.85-5.3,0-2.61-1.36-4.53-4.08-5.79-2.71-1.25-7.12-2.63-13.2-4.16-6.52-1.52-11.96-3.12-16.3-4.81-4.35-1.68-8.1-4.34-11.25-7.99-3.15-3.64-4.73-8.56-4.73-14.75,0-5.22,1.44-9.97,4.32-14.26,2.88-4.29,7.12-7.69,12.72-10.19,5.59-2.5,12.25-3.75,19.97-3.75,11.41,0,20.4,2.83,26.98,8.48,6.57,5.65,10.35,13.15,11.33,22.5h-25.76c-.44-3.15-1.82-5.65-4.16-7.5-2.34-1.85-5.41-2.77-9.21-2.77-3.26,0-5.76.63-7.5,1.87-1.74,1.25-2.61,2.96-2.61,5.14,0,2.61,1.38,4.56,4.16,5.87,2.77,1.3,7.09,2.61,12.96,3.91,6.74,1.74,12.22,3.45,16.46,5.14,4.24,1.69,7.96,4.4,11.17,8.15,3.2,3.75,4.86,8.78,4.97,15.08,0,5.33-1.49,10.08-4.48,14.26-2.99,4.18-7.28,7.47-12.88,9.86-5.6,2.39-12.09,3.59-19.48,3.59-7.93,0-15-1.36-21.19-4.08Z"/><path d="m516.95,184.71v23.64h-14.18c-10.1,0-17.99-2.47-23.63-7.42-5.65-4.94-8.48-13.01-8.48-24.21v-36.19h-11.08v-23.15h11.08v-22.17h27.87v22.17h18.26v23.15h-18.26v36.51c0,2.72.65,4.67,1.96,5.87,1.31,1.2,3.48,1.79,6.52,1.79h9.94Z"/><path d="m579.05,120.73c4.89-2.88,10.33-4.32,16.3-4.32v29.51h-7.66c-6.96,0-12.17,1.49-15.65,4.48-3.48,2.99-5.22,8.23-5.22,15.73v42.22h-27.87v-90.96h27.87v15.16c3.26-5,7.34-8.94,12.22-11.82Z"/><path d="m700.49,169.55h-63.08c.43,5.65,2.25,9.97,5.46,12.96,3.2,2.99,7.14,4.48,11.82,4.48,6.95,0,11.79-2.93,14.51-8.8h29.67c-1.52,5.98-4.27,11.36-8.23,16.14-3.97,4.78-8.94,8.53-14.92,11.25-5.98,2.72-12.66,4.08-20.05,4.08-8.91,0-16.84-1.9-23.8-5.71-6.96-3.8-12.39-9.24-16.3-16.3-3.91-7.06-5.86-15.32-5.86-24.78s1.93-17.71,5.78-24.78c3.86-7.06,9.26-12.5,16.22-16.3,6.95-3.8,14.94-5.71,23.96-5.71s16.63,1.85,23.48,5.54c6.85,3.7,12.2,8.97,16.05,15.81,3.86,6.85,5.79,14.83,5.79,23.96,0,2.61-.16,5.33-.49,8.15Zm-28.04-15.48c0-4.78-1.63-8.58-4.89-11.41-3.26-2.83-7.34-4.24-12.23-4.24s-8.61,1.36-11.82,4.07c-3.21,2.72-5.19,6.58-5.95,11.57h34.88Z"/><path d="m721.92,138.09c3.53-7.06,8.34-12.5,14.43-16.3,6.09-3.8,12.88-5.71,20.38-5.71,6.41,0,12.04,1.3,16.87,3.91,4.83,2.61,8.56,6.03,11.17,10.27v-12.88h27.87v90.96h-27.87v-12.88c-2.72,4.24-6.49,7.66-11.33,10.27-4.83,2.61-10.46,3.91-16.87,3.91-7.39,0-14.13-1.93-20.21-5.79-6.09-3.86-10.9-9.35-14.43-16.46-3.54-7.12-5.3-15.35-5.3-24.69s1.76-17.55,5.3-24.61Zm57.05,8.31c-3.86-4.02-8.56-6.03-14.1-6.03s-10.24,1.99-14.1,5.95c-3.86,3.97-5.79,9.43-5.79,16.38s1.93,12.47,5.79,16.54c3.86,4.08,8.56,6.11,14.1,6.11s10.24-2.01,14.1-6.03c3.86-4.02,5.79-9.51,5.79-16.46s-1.93-12.44-5.79-16.46Z"/><path d="m982.41,126.68c6.69,6.85,10.03,16.36,10.03,28.53v53.14h-27.71v-49.39c0-5.87-1.55-10.41-4.65-13.61-3.1-3.2-7.36-4.81-12.8-4.81s-9.7,1.6-12.8,4.81c-3.1,3.21-4.65,7.74-4.65,13.61v49.39h-27.71v-49.39c0-5.87-1.55-10.41-4.64-13.61-3.1-3.2-7.37-4.81-12.8-4.81s-9.7,1.6-12.8,4.81c-3.1,3.21-4.64,7.74-4.64,13.61v49.39h-27.87v-90.96h27.87v11.41c2.82-3.8,6.52-6.82,11.08-9.05,4.56-2.22,9.72-3.34,15.49-3.34,6.85,0,12.96,1.47,18.34,4.4,5.38,2.93,9.59,7.12,12.63,12.55,3.15-5,7.44-9.07,12.88-12.23,5.43-3.15,11.36-4.73,17.77-4.73,11.3,0,20.29,3.42,26.98,10.27Z"/><path d="m1149.08,117.39l-24.61,90.96h-30.81l-14.35-59.01-14.83,59.01h-30.65l-24.77-90.96h27.87l12.88,65.04,15.32-65.04h29.5l15.49,64.71,12.71-64.71h26.24Z"/><path d="m1165.96,138.09c3.53-7.06,8.34-12.5,14.43-16.3,6.09-3.8,12.88-5.71,20.38-5.71,6.41,0,12.04,1.3,16.87,3.91,4.83,2.61,8.56,6.03,11.17,10.27v-12.88h27.87v90.96h-27.87v-12.88c-2.72,4.24-6.49,7.66-11.33,10.27-4.83,2.61-10.46,3.91-16.87,3.91-7.39,0-14.13-1.93-20.21-5.79-6.09-3.86-10.9-9.35-14.43-16.46-3.54-7.12-5.3-15.35-5.3-24.69s1.76-17.55,5.3-24.61Zm57.05,8.31c-3.86-4.02-8.56-6.03-14.1-6.03s-10.24,1.99-14.1,5.95c-3.86,3.97-5.79,9.43-5.79,16.38s1.93,12.47,5.79,16.54c3.86,4.08,8.56,6.11,14.1,6.11s10.24-2.01,14.1-6.03c3.86-4.02,5.79-9.51,5.79-16.46s-1.93-12.44-5.79-16.46Z"/><path d="m1376.32,117.39l-57.05,134.16h-30l20.87-46.3-37-87.86h31.14l21.03,56.89,20.87-56.89h30.16Z"/><path d="m1408.76,205.57c-6.2-2.71-11.08-6.44-14.67-11.17-3.59-4.73-5.6-10.02-6.03-15.89h27.55c.32,3.15,1.79,5.71,4.4,7.66,2.61,1.96,5.81,2.93,9.62,2.93,3.48,0,6.17-.68,8.07-2.04,1.9-1.36,2.85-3.12,2.85-5.3,0-2.61-1.36-4.53-4.08-5.79-2.71-1.25-7.12-2.63-13.2-4.16-6.52-1.52-11.96-3.12-16.3-4.81-4.35-1.68-8.1-4.34-11.25-7.99-3.15-3.64-4.73-8.56-4.73-14.75,0-5.22,1.44-9.97,4.32-14.26,2.88-4.29,7.12-7.69,12.72-10.19,5.59-2.5,12.25-3.75,19.97-3.75,11.41,0,20.4,2.83,26.98,8.48,6.57,5.65,10.35,13.15,11.33,22.5h-25.76c-.44-3.15-1.82-5.65-4.16-7.5-2.34-1.85-5.41-2.77-9.21-2.77-3.26,0-5.76.63-7.5,1.87-1.74,1.25-2.61,2.96-2.61,5.14,0,2.61,1.38,4.56,4.16,5.87,2.77,1.3,7.09,2.61,12.96,3.91,6.74,1.74,12.22,3.45,16.46,5.14,4.24,1.69,7.96,4.4,11.17,8.15,3.2,3.75,4.86,8.78,4.97,15.08,0,5.33-1.49,10.08-4.48,14.26-2.99,4.18-7.28,7.47-12.88,9.86-5.6,2.39-12.09,3.59-19.48,3.59-7.93,0-15-1.36-21.19-4.08Z"/><path d="m1493.18,117.93c2.13,1.23,3.81,2.92,5.01,5.08,1.2,2.16,1.81,4.58,1.81,7.27s-.6,5.13-1.81,7.31c-1.21,2.18-2.88,3.89-5.01,5.11-2.13,1.23-4.55,1.84-7.23,1.84s-5.18-.61-7.31-1.84c-2.13-1.23-3.8-2.93-5.01-5.11-1.21-2.18-1.81-4.62-1.81-7.31s.6-5.11,1.81-7.27,2.88-3.85,5.01-5.08c2.13-1.23,4.57-1.84,7.31-1.84s5.1.62,7.23,1.84Zm.87,20.63c2.06-2.13,3.1-4.89,3.1-8.28s-1.04-6.15-3.1-8.28c-2.06-2.13-4.77-3.2-8.11-3.2s-6.09,1.07-8.11,3.2c-2.02,2.13-3.03,4.9-3.03,8.28s1.01,6.15,3.03,8.28c2.02,2.13,4.72,3.2,8.11,3.2s6.04-1.07,8.11-3.2Zm-2.71-8.38c-.58.77-1.38,1.31-2.4,1.64l3.9,5.78-4.38.07-3.34-5.57h-1.18v5.57h-3.62v-14.96h6.68c1.58,0,2.84.42,3.79,1.25.95.83,1.43,1.97,1.43,3.41,0,1.11-.29,2.05-.87,2.82Zm-7.41-1.08h2.85c.51,0,.94-.14,1.29-.42.35-.28.52-.67.52-1.18s-.17-.89-.52-1.15c-.35-.25-.78-.38-1.29-.38h-2.85v3.13Z"/><path class="cls-1" d="m217.52,217.59c7.94,3.56,16.91-2.25,16.91-10.95v-99.38c0-4.71-2.76-8.99-7.05-10.93L16.95,1.08C9.01-2.51,0,3.29,0,12.01v100.26c0,4.73,2.78,9.02,7.09,10.95l210.43,94.37Z"/><path class="cls-1" d="m7.54,208.96c-4.56,1.82-7.54,6.23-7.54,11.14v76.93c0,8.41,8.43,14.21,16.28,11.21l139.14-53.16c9.98-3.81,10.38-17.79.63-22.16l-93.62-41.98c-2.97-1.33-6.35-1.4-9.37-.19l-45.52,18.21Z"/></g></svg>